<?xml version="1.0" standalone="no"?>
<!DOCTYPE svg PUBLIC "-//W3C//DTD SVG 20010904//EN"
 "http://www.w3.org/TR/2001/REC-SVG-20010904/DTD/svg10.dtd">
<svg version="1.0" xmlns="http://www.w3.org/2000/svg"
 width="300.000000pt" height="300.000000pt" viewBox="0 0 300.000000 300.000000"
 preserveAspectRatio="xMidYMid meet">
<metadata>
Created by potrace 1.11, written by Peter Selinger 2001-2013
</metadata>
<g transform="translate(0.000000,300.000000) scale(0.100000,-0.100000)"
fill="#000000" stroke="none">
<path d="M622 2870 c-94 -5 -106 -7 -123 -29 -10 -13 -19 -29 -19 -37 0 -8 -4
-14 -9 -14 -6 0 -6 -12 -1 -30 5 -16 5 -30 0 -30 -4 0 -4 -16 0 -35 8 -35 -7
-64 -25 -47 -5 4 -5 2 -1 -5 4 -7 13 -10 21 -7 10 4 12 0 8 -15 -3 -12 -10
-18 -17 -14 -8 5 -8 3 0 -8 15 -19 24 -58 14 -64 -4 -2 -4 -22 -1 -42 9 -48 3
-76 -12 -66 -9 5 -9 3 0 -8 6 -8 12 -33 11 -56 0 -23 3 -46 6 -51 3 -6 2 -13
-3 -16 -4 -3 -5 -24 -1 -46 4 -22 4 -43 -1 -45 -4 -3 -4 -19 1 -35 5 -17 5
-32 0 -35 -5 -3 -5 -16 0 -30 7 -19 6 -27 -8 -34 -10 -6 -12 -11 -4 -11 9 0
12 -18 11 -65 -2 -53 -5 -66 -20 -70 -23 -8 -60 -58 -62 -84 -1 -16 -8 -19
-33 -17 -25 2 -34 -2 -38 -17 -2 -10 -9 -16 -15 -12 -6 3 -9 0 -5 -8 6 -16
-33 -107 -50 -119 -6 -4 -8 -8 -4 -8 3 0 -6 -26 -21 -57 -16 -32 -34 -75 -42
-95 -7 -21 -17 -38 -21 -38 -4 0 -8 -6 -8 -12 0 -7 -7 -26 -15 -42 -9 -16 -14
-35 -11 -42 2 -6 -1 -17 -7 -23 -6 -6 -7 -11 -1 -11 5 0 10 -9 10 -20 0 -11
-3 -20 -7 -20 -4 0 -6 -8 -4 -17 2 -10 4 -18 5 -18 2 0 3 -72 1 -93 -1 -7 -7
-10 -13 -7 -7 4 -2 -3 12 -14 14 -11 30 -19 37 -16 7 2 15 -1 19 -7 4 -6 3 -8
-4 -4 -6 3 -13 3 -16 -2 -2 -4 6 -8 19 -8 13 0 21 5 18 12 -2 7 5 11 19 10 21
-1 23 -6 24 -56 0 -31 3 -61 8 -68 4 -6 4 -12 -1 -12 -4 0 -9 -11 -9 -25 -1
-14 1 -25 5 -25 4 0 6 -12 5 -27 -1 -16 -3 -28 -4 -28 0 0 -2 -28 -3 -63 -1
-34 0 -62 3 -62 3 0 4 -26 3 -57 -1 -32 -2 -58 -3 -58 -6 0 -4 -98 3 -102 4
-2 5 -9 1 -14 -10 -17 -13 -69 -4 -69 5 0 7 -6 5 -12 -9 -27 -13 -108 -5 -103
4 3 6 -4 3 -16 -4 -16 -12 -20 -29 -16 -34 6 -41 -9 -41 -85 -1 -49 3 -68 14
-72 8 -3 12 -2 9 2 -2 4 24 7 59 7 35 0 61 -3 58 -7 -2 -5 1 -8 6 -8 6 0 11 4
11 8 0 5 14 6 31 4 20 -3 27 -7 18 -12 -7 -5 -2 -7 14 -7 19 2 23 5 15 15 -8
9 -7 11 6 6 15 -6 20 -17 17 -36 -2 -17 16 -6 28 16 13 24 51 26 51 2 0 -7 4
-6 9 2 4 8 22 15 39 16 17 1 29 -1 26 -5 -2 -4 3 -10 12 -13 8 -3 12 -2 9 4
-3 6 0 10 7 11 7 1 26 2 41 3 17 2 31 -3 37 -13 7 -14 11 -14 22 -2 11 12 11
13 -1 6 -9 -5 -12 -4 -8 2 10 16 50 8 58 -13 7 -18 8 -18 8 1 1 16 8 20 37 20
20 -1 39 -7 44 -15 8 -13 11 -13 22 -1 11 11 11 13 -1 6 -9 -5 -12 -4 -8 2 10
16 50 8 58 -13 7 -18 8 -18 8 2 1 17 6 20 31 16 17 -2 30 -9 30 -14 0 -5 5 -6
10 -3 6 4 8 10 5 15 -3 4 2 7 12 6 9 -2 17 -11 19 -20 1 -10 6 -21 9 -24 4 -4
6 0 5 8 -5 31 0 36 31 32 20 -3 27 -7 18 -12 -7 -5 -2 -7 14 -7 19 2 23 5 15
15 -8 9 -7 11 6 6 15 -6 20 -17 17 -36 -2 -17 16 -6 28 16 9 16 19 22 32 19
10 -3 19 -10 19 -15 0 -5 7 -2 16 6 15 15 39 13 30 -3 -3 -4 0 -13 5 -21 9
-13 10 -13 8 0 -3 32 2 36 32 32 20 -3 27 -7 18 -12 -7 -5 -2 -7 14 -7 19 2
23 5 15 15 -8 9 -7 11 6 6 15 -6 20 -17 17 -36 -2 -17 16 -6 28 16 9 16 19 22
32 19 10 -3 19 -10 19 -15 0 -5 7 -3 15 6 18 18 45 11 46 -13 0 -12 2 -11 9 4
6 17 16 21 55 20 28 -1 50 -7 55 -16 8 -12 11 -12 22 0 11 11 11 13 -1 6 -9
-5 -12 -4 -8 2 10 16 50 8 58 -13 7 -18 8 -18 8 1 1 16 8 20 37 20 20 -1 39
-7 44 -15 8 -13 11 -13 22 -1 11 11 11 13 -1 6 -9 -5 -12 -4 -8 2 10 16 50 8
58 -13 7 -18 8 -18 8 2 1 17 6 20 31 16 17 -2 30 -9 30 -14 0 -5 5 -6 10 -3 6
4 8 10 5 15 -3 4 2 7 12 6 9 -2 17 -11 19 -20 1 -10 6 -21 9 -24 4 -4 6 0 5 8
-5 31 0 36 31 32 20 -3 27 -7 18 -12 -7 -5 -2 -7 14 -7 19 2 23 5 15 15 -8 9
-7 11 6 6 15 -6 20 -17 17 -36 -2 -17 16 -6 28 16 9 16 19 22 32 19 10 -3 19
-10 19 -15 0 -5 7 -2 16 6 15 15 39 13 30 -3 -3 -4 0 -13 5 -21 9 -13 10 -13
8 0 -3 32 2 36 32 32 20 -3 27 -7 18 -12 -7 -5 -2 -7 14 -7 19 2 23 5 15 15
-8 9 -7 11 6 6 15 -6 20 -17 17 -36 -2 -17 16 -6 28 16 13 24 51 26 51 2 0 -7
4 -6 9 2 4 8 22 15 39 16 17 1 29 -1 26 -5 -2 -4 3 -10 12 -13 8 -3 12 -2 9 4
-3 6 2 11 12 11 29 2 48 -2 54 -13 4 -7 8 -6 11 2 2 6 18 13 35 14 18 1 30 -2
27 -6 -3 -4 0 -8 6 -8 6 0 8 -5 4 -12 -4 -7 -3 -8 5 -4 6 4 9 11 6 16 -3 4 8
10 25 12 16 2 27 2 25 -2 -2 -3 0 -12 6 -20 7 -12 9 -11 9 6 0 12 7 21 15 21
11 0 12 -4 3 -14 -8 -11 -7 -12 6 -7 9 3 16 10 16 16 0 5 4 7 9 4 5 -4 15 -4
23 -1 10 4 13 23 11 72 -3 70 -10 82 -46 78 -21 -3 -22 1 -21 74 1 59 4 75 15
73 11 -3 10 0 -2 15 -21 25 -20 230 2 225 11 -3 10 0 -2 15 -19 22 -19 69 1
65 11 -3 11 -1 0 14 -9 10 -14 42 -15 85 0 57 3 68 15 64 11 -4 11 -2 -2 8
-11 9 -14 18 -8 27 5 8 4 22 -1 32 -6 12 -6 18 0 18 7 0 7 8 1 24 -7 18 -5 26
6 30 8 3 14 11 14 17 0 8 -6 7 -17 -2 -16 -12 -17 -12 -6 2 7 9 11 18 8 21 -3
2 2 5 10 5 8 0 13 -3 11 -6 -2 -3 3 -12 11 -20 13 -12 14 -11 9 6 -6 18 -3 20
29 17 29 -2 36 1 40 19 7 34 3 241 -5 247 -16 11 -70 132 -64 142 4 6 3 8 -3
5 -10 -6 -38 40 -35 56 1 4 -2 7 -8 7 -5 0 -10 9 -10 20 0 11 -5 20 -11 20 -5
0 -8 4 -5 9 4 5 3 11 -1 13 -5 1 -18 23 -31 48 -22 45 -25 72 -8 99 5 8 5 12
0 9 -5 -4 -9 7 -9 23 0 16 2 29 5 29 12 0 1 71 -16 99 -18 31 -65 54 -111 54
-13 0 -27 5 -30 11 -11 17 -12 59 -1 79 5 11 5 17 -1 17 -7 0 -7 9 -1 25 6 16
6 25 -1 25 -6 0 -6 7 1 20 6 12 7 20 1 20 -10 0 -8 40 3 58 4 7 3 12 -3 12 -7
0 -7 8 -1 25 6 16 6 25 -1 25 -6 0 -6 7 1 20 6 12 7 20 1 20 -10 0 -8 40 3 58
4 7 3 12 -3 12 -7 0 -7 8 -1 25 6 16 6 25 -1 25 -6 0 -6 7 1 20 6 12 7 20 1
20 -10 0 -8 40 3 58 4 7 3 12 -3 12 -7 0 -7 8 -1 25 6 16 6 25 -1 25 -6 0 -6
7 1 20 6 11 7 20 2 20 -5 0 -8 23 -7 50 1 28 -1 50 -5 50 -4 0 -13 11 -20 25
-8 15 -25 27 -44 30 -39 8 -1705 12 -1844 5z m-169 -2705 c-3 -9 -8 -14 -10
-11 -3 3 -2 9 2 15 9 16 15 13 8 -4z m720 0 c-3 -9 -8 -14 -10 -11 -3 3 -2 9
2 15 9 16 15 13 8 -4z m240 0 c-3 -9 -8 -14 -10 -11 -3 3 -2 9 2 15 9 16 15
13 8 -4z m720 0 c-3 -9 -8 -14 -10 -11 -3 3 -2 9 2 15 9 16 15 13 8 -4z m240
0 c-3 -9 -8 -14 -10 -11 -3 3 -2 9 2 15 9 16 15 13 8 -4z"/>
<path d="M2553 2055 c0 -8 4 -12 9 -9 5 3 6 10 3 15 -9 13 -12 11 -12 -6z"/>
<path d="M2710 1861 c0 -6 4 -13 10 -16 6 -3 7 1 4 9 -7 18 -14 21 -14 7z"/>
<path d="M115 1120 c-3 -5 -1 -10 4 -10 6 0 11 5 11 10 0 6 -2 10 -4 10 -3 0
-8 -4 -11 -10z"/>
<path d="M210 1116 c0 -8 -6 -16 -12 -19 -7 -3 -3 -4 9 -4 14 1 21 7 20 19 -1
21 -17 25 -17 4z"/>
<path d="M2842 1118 c-7 -7 -12 -17 -12 -22 0 -6 5 -3 11 7 6 9 15 14 21 11 7
-4 8 -2 4 4 -9 15 -9 15 -24 0z"/>
<path d="M260 160 c-8 -5 -8 -9 2 -12 16 -6 38 1 38 11 0 10 -26 10 -40 1z"/>
<path d="M554 156 c11 -9 24 -16 30 -16 12 0 7 5 -24 19 -24 11 -24 11 -6 -3z"/>
<path d="M636 159 c2 -4 -2 -10 -8 -12 -8 -4 -7 -6 3 -6 9 -1 19 5 22 12 3 8
-1 14 -9 14 -7 0 -11 -4 -8 -8z"/>
<path d="M667 151 c-4 -17 -3 -21 5 -13 5 5 8 16 6 23 -3 8 -7 3 -11 -10z"/>
<path d="M735 161 c-3 -5 -2 -12 3 -15 5 -3 9 1 9 9 0 17 -3 19 -12 6z"/>
<path d="M796 154 c-20 -19 -20 -25 -2 -18 8 3 17 12 20 20 7 18 1 18 -18 -2z"/>
<path d="M827 151 c-4 -17 -3 -21 5 -13 5 5 8 16 6 23 -3 8 -7 3 -11 -10z"/>
<path d="M895 161 c-3 -5 -2 -12 3 -15 5 -3 9 1 9 9 0 17 -3 19 -12 6z"/>
<path d="M1553 155 c0 -8 3 -13 5 -10 3 3 12 -1 20 -8 13 -11 14 -9 1 11 -16
26 -26 28 -26 7z"/>
<path d="M1601 161 c-8 -5 -9 -11 -3 -15 5 -3 12 1 16 9 6 17 6 18 -13 6z"/>
<path d="M1627 151 c-4 -17 -3 -21 5 -13 5 5 8 16 6 23 -3 8 -7 3 -11 -10z"/>
<path d="M1695 161 c-3 -5 -2 -12 3 -15 5 -3 9 1 9 9 0 17 -3 19 -12 6z"/>
<path d="M1756 154 c-20 -19 -20 -25 -2 -18 8 3 17 12 20 20 7 18 1 18 -18 -2z"/>
<path d="M1787 151 c-4 -17 -3 -21 5 -13 5 5 8 16 6 23 -3 8 -7 3 -11 -10z"/>
<path d="M1855 161 c-3 -5 -2 -12 3 -15 5 -3 9 1 9 9 0 17 -3 19 -12 6z"/>
<path d="M2474 156 c11 -9 24 -16 30 -16 12 0 7 5 -24 19 -24 11 -24 11 -6 -3z"/>
<path d="M947 147 c-3 -7 5 -12 19 -12 29 0 29 1 5 14 -14 8 -20 7 -24 -2z"/>
<path d="M1907 147 c-3 -7 5 -12 19 -12 29 0 29 1 5 14 -14 8 -20 7 -24 -2z"/>
<path d="M2706 152 c-3 -5 1 -9 9 -9 8 0 12 4 9 9 -3 4 -7 8 -9 8 -2 0 -6 -4
-9 -8z"/>
<path d="M2786 145 c-11 -8 -15 -15 -9 -15 6 0 16 7 23 15 16 19 11 19 -14 0z"/>
<path d="M313 135 c0 -8 4 -12 9 -9 4 3 8 9 8 15 0 5 -4 9 -8 9 -5 0 -9 -7 -9
-15z"/>
<path d="M470 146 c0 -2 9 -6 20 -9 11 -3 18 -1 14 4 -5 9 -34 13 -34 5z"/>
<path d="M530 140 c0 -5 5 -10 11 -10 5 0 7 5 4 10 -3 6 -8 10 -11 10 -2 0 -4
-4 -4 -10z"/>
<path d="M1010 140 c0 -5 5 -10 11 -10 5 0 7 5 4 10 -3 6 -8 10 -11 10 -2 0
-4 -4 -4 -10z"/>
<path d="M1190 146 c0 -2 9 -6 20 -9 11 -3 18 -1 14 4 -5 9 -34 13 -34 5z"/>
<path d="M1250 140 c0 -5 5 -10 11 -10 5 0 7 5 4 10 -3 6 -8 10 -11 10 -2 0
-4 -4 -4 -10z"/>
<path d="M1430 146 c0 -2 9 -6 20 -9 11 -3 18 -1 14 4 -5 9 -34 13 -34 5z"/>
<path d="M1490 140 c0 -5 5 -10 11 -10 5 0 7 5 4 10 -3 6 -8 10 -11 10 -2 0
-4 -4 -4 -10z"/>
<path d="M1970 140 c0 -5 5 -10 11 -10 5 0 7 5 4 10 -3 6 -8 10 -11 10 -2 0
-4 -4 -4 -10z"/>
<path d="M2150 146 c0 -2 9 -6 20 -9 11 -3 18 -1 14 4 -5 9 -34 13 -34 5z"/>
<path d="M2210 140 c0 -5 5 -10 11 -10 5 0 7 5 4 10 -3 6 -8 10 -11 10 -2 0
-4 -4 -4 -10z"/>
<path d="M2390 146 c0 -2 9 -6 20 -9 11 -3 18 -1 14 4 -5 9 -34 13 -34 5z"/>
<path d="M2450 140 c0 -5 5 -10 11 -10 5 0 7 5 4 10 -3 6 -8 10 -11 10 -2 0
-4 -4 -4 -10z"/>
<path d="M2540 146 c0 -2 11 -6 25 -8 13 -3 22 -1 19 3 -5 9 -44 13 -44 5z"/>
<path d="M2610 140 c0 -5 5 -10 11 -10 5 0 7 5 4 10 -3 6 -8 10 -11 10 -2 0
-4 -4 -4 -10z"/>
</g>
</svg>
